<svg xmlns="http://www.w3.org/2000/svg" viewBox="0 0 512 512">
  <rect width="512" height="512" rx="118" fill="#efe5d8"/>
  <circle cx="256" cy="242" r="148" fill="#d7bfae" opacity=".72"/>
  <path d="M163 267c0-65 42-118 93-118s93 53 93 118c0 44-20 82-49 102-14 10-29-7-20-22 12-19 19-46 19-80 0-47-19-85-43-85s-43 38-43 85c0 34 7 61 19 80 9 15-6 32-20 22-29-20-49-58-49-102Z" fill="#4f443b"/>
  <circle cx="199" cy="214" r="18" fill="#f7f0e8"/>
  <circle cx="313" cy="214" r="18" fill="#f7f0e8"/>
</svg>
